<svg xmlns="http://www.w3.org/2000/svg" viewBox="0 0 146.14 234.2"><defs><style>.cls-1{fill:#ef7d00;}.cls-2,.cls-3,.cls-4{fill:#213a8f;}.cls-3,.cls-4{font-size:43.02px;font-family:Verdana;}.cls-4{letter-spacing:0em;}</style></defs><g id="Ebene_2" data-name="Ebene 2"><g id="Ebene_1-2" data-name="Ebene 1"><polygon class="cls-1" points="24.8 210.48 24.8 234.19 48.52 234.19 48.52 210.48 24.8 210.48 24.8 210.48"/><polygon class="cls-1" points="62.74 210.48 62.74 234.19 86.45 234.19 86.45 210.48 62.74 210.48 62.74 210.48"/><polygon class="cls-1" points="100.68 210.48 100.68 234.19 124.39 234.19 124.39 210.48 100.68 210.48 100.68 210.48"/><polygon class="cls-2" points="39.54 0 39.54 69.03 52.6 69.03 52.6 0 39.54 0 39.54 0"/><polygon class="cls-2" points="58.26 0 58.26 69.03 71.32 69.03 71.32 0 58.26 0 58.26 0"/><polygon class="cls-2" points="76.98 0 76.98 69.03 90.04 69.03 90.04 0 76.98 0 76.98 0"/><polygon class="cls-2" points="95.71 0 95.71 69.03 108.76 69.03 108.76 0 95.71 0 95.71 0"/><polygon class="cls-1" points="39.54 56.55 39.54 69.03 52.6 69.03 52.6 56.55 39.54 56.55 39.54 56.55"/><polygon class="cls-1" points="58.26 37.48 58.26 49.96 71.32 49.96 71.32 37.48 58.26 37.48 58.26 37.48"/><polygon class="cls-1" points="76.98 18.38 76.98 31.21 90.04 31.21 90.04 18.38 76.98 18.38 76.98 18.38"/><polygon class="cls-1" points="95.71 0 95.71 12.48 108.76 12.48 108.76 0 95.71 0 95.71 0"/><text class="cls-3" transform="translate(0 128.69)">ARDEY</text><text class="cls-4" transform="translate(1.67 180.31)">HO</text><text class="cls-3" transform="translate(66.81 180.31)">TE</text><text class="cls-3" transform="translate(120.52 180.31)">L</text></g></g></svg>